# Blender v2.78 (sub 0) OBJ File: 'diamond.blend'
# www.blender.org
mtllib diamond.mtl
o Cone_Cone.001
v 0.000000 0.316711 -1.000000
v -0.508134 0.316711 -0.880114
v -0.866025 0.316711 -0.500000
v -1.016268 0.316711 0.000000
v 0.000000 -0.660507 0.000000
v -0.866025 0.316711 0.500000
v -0.508134 0.316711 0.880115
v -0.000000 0.316711 1.000000
v 0.508134 0.316711 0.880115
v 0.866025 0.316711 0.500001
v 1.016269 0.316711 0.000001
v 0.866026 0.316711 -0.499999
v 0.508135 0.316711 -0.880114
v 0.000000 0.674905 -0.714780
v -0.326637 0.674905 -0.565752
v -0.619018 0.674905 -0.357390
v -0.653275 0.674904 0.000000
v -0.619017 0.674904 0.357390
v -0.326638 0.674904 0.565753
v -0.000000 0.674904 0.714780
v 0.326638 0.674904 0.565753
v 0.619018 0.674904 0.357391
v 0.653275 0.674904 0.000001
v 0.619018 0.674904 -0.357389
v 0.326638 0.674905 -0.565752
v 0.000000 0.746334 0.000001
vn -0.1627 -0.7057 -0.6896
vn -0.5159 -0.7057 -0.4857
vn -0.6786 -0.7057 -0.2039
vn -0.6786 -0.7057 0.2039
vn -0.5159 -0.7057 0.4857
vn -0.1627 -0.7057 0.6896
vn 0.1627 -0.7057 0.6896
vn 0.5159 -0.7057 0.4857
vn 0.6786 -0.7057 0.2039
vn 0.6786 -0.7057 -0.2039
vn 0.5159 -0.7057 -0.4857
vn 0.1627 -0.7057 -0.6896
vn 0.6872 0.6965 -0.2065
vn 0.0453 0.9940 -0.0993
vn -0.5225 0.6965 -0.4919
vn -0.5225 0.6965 0.4919
vn -0.1648 0.6965 -0.6984
vn 0.1648 0.6965 0.6984
vn 0.8061 0.5867 0.0773
vn -0.6872 0.6965 0.2065
vn -0.6872 0.6965 -0.2065
vn -0.1648 0.6965 0.6984
vn 0.5225 0.6965 0.4919
vn 0.1648 0.6965 -0.6984
vn -0.4700 0.5867 -0.6595
vn 0.3361 0.5867 -0.7368
vn -0.3361 0.5867 -0.7368
vn 0.5225 0.6965 -0.4919
vn -0.8061 0.5867 -0.0773
vn -0.4700 0.5867 0.6595
vn -0.3361 0.5867 0.7368
vn -0.8061 0.5867 0.0773
vn 0.6872 0.6965 0.2065
vn 0.8061 0.5867 -0.0773
vn 0.4700 0.5867 0.6595
vn 0.4700 0.5867 -0.6595
vn 0.3361 0.5867 0.7368
vn 0.1087 0.9940 0.0104
vn -0.0453 0.9940 0.0993
vn -0.0453 0.9940 -0.0993
vn -0.0634 0.9940 0.0889
vn -0.1087 0.9940 0.0104
vn -0.0634 0.9940 -0.0889
vn -0.1087 0.9940 -0.0104
vn 0.0634 0.9940 0.0889
vn 0.0453 0.9940 0.0993
vn 0.0634 0.9940 -0.0889
vn 0.1087 0.9940 -0.0104
usemtl Blue
s off
f 1//1 5//1 2//1
f 2//2 5//2 3//2
f 3//3 5//3 4//3
f 4//4 5//4 6//4
f 6//5 5//5 7//5
f 7//6 5//6 8//6
f 8//7 5//7 9//7
f 9//8 5//8 10//8
f 10//9 5//9 11//9
f 11//10 5//10 12//10
f 12//11 5//11 13//11
f 13//12 5//12 1//12
f 11//13 12//13 23//13
f 14//14 26//14 25//14
f 2//15 3//15 15//15
f 6//16 7//16 19//16
f 1//17 2//17 15//17
f 8//18 9//18 21//18
f 10//19 23//19 22//19
f 4//20 6//20 17//20
f 3//21 4//21 17//21
f 7//22 8//22 19//22
f 9//23 10//23 21//23
f 13//24 1//24 25//24
f 15//25 3//25 16//25
f 25//26 1//26 14//26
f 15//27 14//27 1//27
f 25//28 12//28 13//28
f 17//29 16//29 3//29
f 6//30 19//30 18//30
f 19//31 8//31 20//31
f 17//32 6//32 18//32
f 23//33 10//33 11//33
f 23//34 12//34 24//34
f 21//35 10//35 22//35
f 12//36 25//36 24//36
f 21//37 20//37 8//37
f 23//38 26//38 22//38
f 20//39 26//39 19//39
f 26//40 14//40 15//40
f 19//41 26//41 18//41
f 18//42 26//42 17//42
f 15//43 16//43 26//43
f 26//44 16//44 17//44
f 22//45 26//45 21//45
f 21//46 26//46 20//46
f 25//47 26//47 24//47
f 24//48 26//48 23//48
